<svg width="16" height="16" viewBox="0 0 16 16" fill="none" xmlns="http://www.w3.org/2000/svg">
<path d="M8 0C3.584 0 0 3.584 0 8C0 12.416 3.584 16 8 16C12.4 16 16 12.416 16 8C16 3.584 12.4 0 8 0ZM13.28 3.68C14.24 4.848 14.8 6.32 14.832 7.936C14.608 7.888 12.352 7.44 10.08 7.712C10.032 7.6 9.984 7.472 9.936 7.36C9.792 7.024 9.648 6.688 9.488 6.368C11.984 5.36 13.136 3.872 13.28 3.68ZM8 1.184C9.728 1.184 11.328 1.84 12.528 2.896C12.4 3.072 11.376 4.448 8.944 5.36C7.824 3.296 6.576 1.616 6.4 1.36C6.912 1.248 7.44 1.184 8 1.184ZM5.088 1.824C5.264 2.064 6.48 3.76 7.616 5.776C4.416 6.624 1.6 6.608 1.296 6.608C1.76 4.48 3.184 2.72 5.088 1.824ZM1.168 8.016C1.168 7.952 1.168 7.872 1.168 7.808C1.456 7.824 4.784 7.856 8.192 6.832C8.384 7.216 8.576 7.6 8.752 8C8.672 8.032 8.576 8.048 8.48 8.08C4.96 9.216 3.088 12.32 2.928 12.576C1.824 11.36 1.168 9.76 1.168 8.016ZM8 14.832C6.416 14.832 4.96 14.288 3.808 13.392C3.936 13.136 5.312 10.464 9.168 9.12C9.184 9.104 9.2 9.104 9.216 9.104C10.176 11.6 10.576 13.68 10.672 14.288C9.856 14.64 8.944 14.832 8 14.832ZM11.808 13.664C11.744 13.248 11.376 11.248 10.48 8.8C12.624 8.464 14.496 9.024 14.736 9.088C14.432 10.992 13.344 12.64 11.808 13.664Z" fill="white"/>
</svg>
