<svg width="16" height="13" viewBox="0 0 16 13" fill="none" xmlns="http://www.w3.org/2000/svg">
<path d="M2.96714 7.27214L7.60221 11.6263C7.65405 11.675 7.67998 11.6993 7.70466 11.7174C7.88052 11.8462 8.11952 11.8462 8.29538 11.7174C8.32006 11.6993 8.34599 11.675 8.39783 11.6263L13.0329 7.27214C14.337 6.04706 14.4954 4.03106 13.3986 2.61738L13.1923 2.35156C11.8802 0.660383 9.24644 0.944007 8.32446 2.87576C8.19423 3.14864 7.80581 3.14864 7.67558 2.87576C6.7536 0.944007 4.11984 0.660384 2.80772 2.35156L2.60148 2.61738C1.50465 4.03106 1.66302 6.04706 2.96714 7.27214Z" stroke="#5F5F5F" stroke-width="2"/>
</svg>
