<svg width="205" height="24" viewBox="0 0 205 24" fill="none" xmlns="http://www.w3.org/2000/svg">
<path d="M19.7274 20.4471C19.2716 19.1713 18.2672 18.0439 16.8701 17.2399C15.4729 16.4358 13.7611 16 12 16C10.2389 16 8.52706 16.4358 7.12991 17.2399C5.73276 18.0439 4.72839 19.1713 4.27259 20.4471" stroke="#5F5F5F" stroke-width="2" stroke-linecap="round"/>
<circle cx="12" cy="8" r="4" stroke="#5F5F5F" stroke-width="2" stroke-linecap="round"/>
<path d="M38.804 14.718H34.464L33.638 17H32.266L35.92 7.312H37.362L41.002 17H39.63L38.804 14.718ZM38.44 13.724L36.634 8.74L34.828 13.724H38.44ZM45.6935 9.216C46.6735 9.216 47.4855 9.47733 48.1295 10C48.7735 10.5227 49.1702 11.2227 49.3195 12.1H47.9755C47.8822 11.5493 47.6255 11.12 47.2055 10.812C46.7949 10.4947 46.2815 10.336 45.6655 10.336C45.2175 10.336 44.8069 10.4387 44.4335 10.644C44.0695 10.8493 43.7755 11.1667 43.5515 11.596C43.3275 12.016 43.2155 12.5387 43.2155 13.164C43.2155 13.7893 43.3275 14.3167 43.5515 14.746C43.7755 15.166 44.0695 15.4787 44.4335 15.684C44.8069 15.8893 45.2175 15.992 45.6655 15.992C46.2815 15.992 46.7949 15.8333 47.2055 15.516C47.6255 15.1987 47.8822 14.7647 47.9755 14.214H49.3195C49.1702 15.1007 48.7735 15.8053 48.1295 16.328C47.4855 16.8413 46.6735 17.098 45.6935 17.098C44.9562 17.098 44.3029 16.9393 43.7335 16.622C43.1642 16.3047 42.7162 15.852 42.3895 15.264C42.0722 14.6667 41.9135 13.9667 41.9135 13.164C41.9135 12.3613 42.0722 11.6613 42.3895 11.064C42.7162 10.4667 43.1642 10.0093 43.7335 9.692C44.3029 9.37467 44.9562 9.216 45.6935 9.216ZM54.3888 9.216C55.3688 9.216 56.1808 9.47733 56.8248 10C57.4688 10.5227 57.8655 11.2227 58.0148 12.1H56.6708C56.5775 11.5493 56.3208 11.12 55.9008 10.812C55.4902 10.4947 54.9768 10.336 54.3608 10.336C53.9128 10.336 53.5022 10.4387 53.1288 10.644C52.7648 10.8493 52.4708 11.1667 52.2468 11.596C52.0228 12.016 51.9108 12.5387 51.9108 13.164C51.9108 13.7893 52.0228 14.3167 52.2468 14.746C52.4708 15.166 52.7648 15.4787 53.1288 15.684C53.5022 15.8893 53.9128 15.992 54.3608 15.992C54.9768 15.992 55.4902 15.8333 55.9008 15.516C56.3208 15.1987 56.5775 14.7647 56.6708 14.214H58.0148C57.8655 15.1007 57.4688 15.8053 56.8248 16.328C56.1808 16.8413 55.3688 17.098 54.3888 17.098C53.6515 17.098 52.9982 16.9393 52.4288 16.622C51.8595 16.3047 51.4115 15.852 51.0848 15.264C50.7675 14.6667 50.6088 13.9667 50.6088 13.164C50.6088 12.3613 50.7675 11.6613 51.0848 11.064C51.4115 10.4667 51.8595 10.0093 52.4288 9.692C52.9982 9.37467 53.6515 9.216 54.3888 9.216ZM63.1682 9.216C63.9055 9.216 64.5635 9.37467 65.1422 9.692C65.7302 10.0093 66.1875 10.4667 66.5142 11.064C66.8502 11.6613 67.0182 12.3613 67.0182 13.164C67.0182 13.9667 66.8502 14.6667 66.5142 15.264C66.1875 15.852 65.7302 16.3047 65.1422 16.622C64.5635 16.9393 63.9055 17.098 63.1682 17.098C62.4308 17.098 61.7682 16.9393 61.1802 16.622C60.6015 16.3047 60.1442 15.852 59.8082 15.264C59.4722 14.6667 59.3042 13.9667 59.3042 13.164C59.3042 12.3613 59.4722 11.6613 59.8082 11.064C60.1442 10.4667 60.6015 10.0093 61.1802 9.692C61.7682 9.37467 62.4308 9.216 63.1682 9.216ZM63.1682 10.336C62.7108 10.336 62.2862 10.4387 61.8942 10.644C61.5115 10.8493 61.1988 11.1667 60.9562 11.596C60.7228 12.016 60.6062 12.5387 60.6062 13.164C60.6062 13.78 60.7228 14.3027 60.9562 14.732C61.1988 15.152 61.5115 15.4647 61.8942 15.67C62.2862 15.8753 62.7108 15.978 63.1682 15.978C63.6255 15.978 64.0455 15.8753 64.4282 15.67C64.8202 15.4647 65.1328 15.152 65.3662 14.732C65.6088 14.3027 65.7302 13.78 65.7302 13.164C65.7302 12.5387 65.6088 12.016 65.3662 11.596C65.1328 11.1667 64.8202 10.8493 64.4282 10.644C64.0455 10.4387 63.6255 10.336 63.1682 10.336ZM75.5103 9.314V17H74.2363V15.194C74.0403 15.8193 73.6903 16.3 73.1863 16.636C72.6916 16.9627 72.1129 17.126 71.4503 17.126C70.5636 17.126 69.8449 16.8413 69.2943 16.272C68.7436 15.6933 68.4683 14.8673 68.4683 13.794V9.314H69.7423V13.668C69.7423 14.4333 69.9383 15.026 70.3303 15.446C70.7223 15.8567 71.2543 16.062 71.9263 16.062C72.6263 16.062 73.1863 15.838 73.6063 15.39C74.0263 14.9327 74.2363 14.27 74.2363 13.402V9.314H75.5103ZM81.5973 9.188C82.4933 9.188 83.2166 9.47733 83.7673 10.056C84.318 10.6253 84.5933 11.4513 84.5933 12.534V17H83.3193V12.646C83.3193 11.8807 83.1233 11.2927 82.7313 10.882C82.3393 10.4713 81.8073 10.266 81.1353 10.266C80.4353 10.266 79.8753 10.4947 79.4553 10.952C79.0353 11.4 78.8253 12.058 78.8253 12.926V17H77.5513V9.314H78.8253V11.134C79.0213 10.5087 79.3666 10.028 79.8613 9.692C80.3653 9.356 80.944 9.188 81.5973 9.188ZM90.2154 15.88V17H89.2634C88.4794 17 87.8914 16.8133 87.4994 16.44C87.1167 16.0667 86.9254 15.4413 86.9254 14.564V10.42H85.7774V9.314H86.9254V7.396H88.2134V9.314H90.2014V10.42H88.2134V14.592C88.2134 15.0867 88.3021 15.4273 88.4794 15.614C88.6661 15.7913 88.9834 15.88 89.4314 15.88H90.2154Z" fill="#3E3E3E"/>
<path d="M123 12L123 8C123 5.79086 124.791 4 127 4V4C129.209 4 131 5.79086 131 8L131 12" stroke="#5F5F5F" stroke-width="2" stroke-linecap="round"/>
<path d="M118.694 12.6678C118.839 10.9269 118.912 10.0565 119.486 9.52824C120.06 9 120.934 9 122.681 9H131.319C133.066 9 133.94 9 134.514 9.52824C135.088 10.0565 135.161 10.9269 135.306 12.6678L135.819 18.8339C135.904 19.8474 135.946 20.3542 135.649 20.6771C135.352 21 134.843 21 133.826 21H120.174C119.157 21 118.648 21 118.351 20.6771C118.054 20.3542 118.096 19.8474 118.181 18.8339L118.694 12.6678Z" stroke="#5F5F5F" stroke-width="2"/>
<path d="M154.266 14.438C154.266 14.9047 154.154 15.3387 153.93 15.74C153.706 16.1413 153.365 16.468 152.908 16.72C152.451 16.972 151.886 17.098 151.214 17.098C150.561 17.098 149.977 16.9813 149.464 16.748C148.96 16.5053 148.554 16.1787 148.246 15.768C147.947 15.348 147.775 14.872 147.728 14.34H149.086C149.114 14.62 149.207 14.8953 149.366 15.166C149.534 15.4273 149.767 15.6467 150.066 15.824C150.374 15.992 150.743 16.076 151.172 16.076C151.732 16.076 152.161 15.9267 152.46 15.628C152.759 15.3293 152.908 14.9467 152.908 14.48C152.908 14.0787 152.801 13.752 152.586 13.5C152.381 13.248 152.124 13.052 151.816 12.912C151.508 12.7627 151.088 12.604 150.556 12.436C149.931 12.2307 149.427 12.0393 149.044 11.862C148.671 11.6753 148.349 11.4 148.078 11.036C147.817 10.672 147.686 10.1913 147.686 9.594C147.686 9.08067 147.807 8.628 148.05 8.236C148.302 7.844 148.657 7.54067 149.114 7.326C149.581 7.11133 150.127 7.004 150.752 7.004C151.723 7.004 152.493 7.242 153.062 7.718C153.631 8.18467 153.963 8.782 154.056 9.51H152.684C152.609 9.118 152.409 8.77267 152.082 8.474C151.755 8.17533 151.312 8.026 150.752 8.026C150.239 8.026 149.828 8.16133 149.52 8.432C149.212 8.69333 149.058 9.06667 149.058 9.552C149.058 9.93467 149.156 10.2473 149.352 10.49C149.557 10.7233 149.809 10.91 150.108 11.05C150.407 11.1807 150.817 11.33 151.34 11.498C151.975 11.7033 152.483 11.8993 152.866 12.086C153.258 12.2727 153.589 12.5573 153.86 12.94C154.131 13.3133 154.266 13.8127 154.266 14.438ZM160.025 9.188C160.921 9.188 161.644 9.47733 162.195 10.056C162.746 10.6253 163.021 11.4513 163.021 12.534V17H161.747V12.646C161.747 11.8807 161.551 11.2927 161.159 10.882C160.767 10.4713 160.235 10.266 159.563 10.266C158.863 10.266 158.303 10.4947 157.883 10.952C157.463 11.4 157.253 12.058 157.253 12.926V17H155.979V6.64H157.253V11.134C157.449 10.5087 157.794 10.028 158.289 9.692C158.793 9.356 159.372 9.188 160.025 9.188ZM168.461 9.216C169.198 9.216 169.856 9.37467 170.435 9.692C171.023 10.0093 171.48 10.4667 171.807 11.064C172.143 11.6613 172.311 12.3613 172.311 13.164C172.311 13.9667 172.143 14.6667 171.807 15.264C171.48 15.852 171.023 16.3047 170.435 16.622C169.856 16.9393 169.198 17.098 168.461 17.098C167.724 17.098 167.061 16.9393 166.473 16.622C165.894 16.3047 165.437 15.852 165.101 15.264C164.765 14.6667 164.597 13.9667 164.597 13.164C164.597 12.3613 164.765 11.6613 165.101 11.064C165.437 10.4667 165.894 10.0093 166.473 9.692C167.061 9.37467 167.724 9.216 168.461 9.216ZM168.461 10.336C168.004 10.336 167.579 10.4387 167.187 10.644C166.804 10.8493 166.492 11.1667 166.249 11.596C166.016 12.016 165.899 12.5387 165.899 13.164C165.899 13.78 166.016 14.3027 166.249 14.732C166.492 15.152 166.804 15.4647 167.187 15.67C167.579 15.8753 168.004 15.978 168.461 15.978C168.918 15.978 169.338 15.8753 169.721 15.67C170.113 15.4647 170.426 15.152 170.659 14.732C170.902 14.3027 171.023 13.78 171.023 13.164C171.023 12.5387 170.902 12.016 170.659 11.596C170.426 11.1667 170.113 10.8493 169.721 10.644C169.338 10.4387 168.918 10.336 168.461 10.336ZM178.213 9.216C178.895 9.216 179.501 9.37467 180.033 9.692C180.565 10.0093 180.981 10.4667 181.279 11.064C181.587 11.6613 181.741 12.3613 181.741 13.164C181.741 13.9667 181.587 14.6667 181.279 15.264C180.981 15.852 180.565 16.3047 180.033 16.622C179.501 16.9393 178.895 17.098 178.213 17.098C177.467 17.098 176.832 16.9113 176.309 16.538C175.796 16.1553 175.441 15.656 175.245 15.04V20.64H173.971V9.314H175.245V11.274C175.441 10.658 175.796 10.1633 176.309 9.79C176.832 9.40733 177.467 9.216 178.213 9.216ZM177.849 10.35C177.355 10.35 176.907 10.4667 176.505 10.7C176.104 10.924 175.791 11.2507 175.567 11.68C175.343 12.1093 175.231 12.604 175.231 13.164C175.231 13.724 175.343 14.2187 175.567 14.648C175.791 15.068 176.104 15.3947 176.505 15.628C176.907 15.8613 177.355 15.978 177.849 15.978C178.643 15.978 179.273 15.7307 179.739 15.236C180.215 14.732 180.453 14.0413 180.453 13.164C180.453 12.2867 180.215 11.6007 179.739 11.106C179.273 10.602 178.643 10.35 177.849 10.35ZM183.181 7.06C183.181 6.82667 183.26 6.64 183.419 6.5C183.577 6.35067 183.787 6.276 184.049 6.276C184.31 6.276 184.52 6.35067 184.679 6.5C184.837 6.64 184.917 6.82667 184.917 7.06C184.917 7.29333 184.837 7.48467 184.679 7.634C184.52 7.774 184.31 7.844 184.049 7.844C183.787 7.844 183.577 7.774 183.419 7.634C183.26 7.48467 183.181 7.29333 183.181 7.06ZM184.679 9.314V17H183.405V9.314H184.679ZM190.773 9.188C191.669 9.188 192.392 9.47733 192.943 10.056C193.494 10.6253 193.769 11.4513 193.769 12.534V17H192.495V12.646C192.495 11.8807 192.299 11.2927 191.907 10.882C191.515 10.4713 190.983 10.266 190.311 10.266C189.611 10.266 189.051 10.4947 188.631 10.952C188.211 11.4 188.001 12.058 188.001 12.926V17H186.727V9.314H188.001V11.134C188.197 10.5087 188.542 10.028 189.037 9.692C189.541 9.356 190.12 9.188 190.773 9.188ZM198.873 9.216C199.62 9.216 200.25 9.40267 200.763 9.776C201.286 10.1493 201.65 10.6487 201.855 11.274V9.314H203.129V17.126C203.129 17.8353 202.98 18.4653 202.681 19.016C202.383 19.5667 201.963 19.996 201.421 20.304C200.88 20.612 200.25 20.766 199.531 20.766C198.495 20.766 197.651 20.514 196.997 20.01C196.344 19.5153 195.929 18.8433 195.751 17.994H197.011C197.161 18.5073 197.441 18.9087 197.851 19.198C198.271 19.4967 198.808 19.646 199.461 19.646C200.152 19.646 200.721 19.422 201.169 18.974C201.627 18.5353 201.855 17.9193 201.855 17.126V15.04C201.65 15.6653 201.286 16.1647 200.763 16.538C200.25 16.9113 199.62 17.098 198.873 17.098C198.192 17.098 197.585 16.9393 197.053 16.622C196.521 16.3047 196.101 15.852 195.793 15.264C195.495 14.6667 195.345 13.9667 195.345 13.164C195.345 12.3613 195.495 11.6613 195.793 11.064C196.101 10.4667 196.521 10.0093 197.053 9.692C197.585 9.37467 198.192 9.216 198.873 9.216ZM199.237 10.35C198.453 10.35 197.823 10.602 197.347 11.106C196.881 11.6007 196.647 12.2867 196.647 13.164C196.647 14.0413 196.881 14.732 197.347 15.236C197.823 15.7307 198.453 15.978 199.237 15.978C199.741 15.978 200.189 15.8613 200.581 15.628C200.983 15.3947 201.295 15.068 201.519 14.648C201.743 14.2187 201.855 13.724 201.855 13.164C201.855 12.604 201.743 12.1093 201.519 11.68C201.295 11.2507 200.983 10.924 200.581 10.7C200.189 10.4667 199.741 10.35 199.237 10.35Z" fill="#3E3E3E"/>
</svg>
